# xmcd
#
# Track frame offsets:
#	150
#	18030
#	33272
#	52955
#	69485
#	91257
#	109215
#	123802
#	144460
#	162640
#	175234
#	187705
#	205420
#
# Disc length: 2835 seconds
#
# Revision: 2
# Processed by: cddbd v1.5.1PL2 Copyright (c) Steve Scherf et al.
# Submitted via: CDmax 2.0
#
DISCID=a50b110d
DTITLE=Trailhead - Burnt Brown Fields
DYEAR=1900
DGENRE=Country
TTITLE0=Back To You
TTITLE1=Actions
TTITLE2=Walk Away
TTITLE3=Last Goodbye
TTITLE4=Whiskey In A Bottle
TTITLE5=West Country
TTITLE6=Running
TTITLE7=What Matters
TTITLE8=Once Again
TTITLE9=Let It Go (Tricia's Song)
TTITLE10=Tears
TTITLE11=Nothing
TTITLE12=442
EXTD=
EXTT0=
EXTT1=
EXTT2=
EXTT3=
EXTT4=
EXTT5=
EXTT6=
EXTT7=
EXTT8=
EXTT9=
EXTT10=
EXTT11=
EXTT12=
PLAYORDER=
